<svg width="104" height="104" viewBox="0 0 104 104" fill="none" xmlns="http://www.w3.org/2000/svg">
<g clip-path="url(#clip0_11460_2701)">
<path d="M78.7467 34.212C76.846 33.1257 74.4021 33.1257 72.2298 34.212L57.0235 43.1739L46.705 48.8769L31.7702 57.8388C29.8695 58.9251 27.4256 58.9251 25.2533 57.8388L13.577 50.7779C11.6762 49.6916 10.3185 47.519 10.3185 45.0749V31.4963C10.3185 29.3237 11.4047 27.1511 13.577 25.7932L25.2533 19.0039C27.154 17.9176 29.5979 17.9176 31.7702 19.0039L43.4465 26.0648C45.3473 27.1511 46.705 29.3237 46.705 31.7678V40.7297L57.0235 34.7551V25.5217C57.0235 23.3491 55.9373 21.1765 53.765 19.8186L32.0418 7.05471C30.141 5.96842 27.6971 5.96842 25.5248 7.05471L3.25849 20.0902C1.08616 21.1765 0 23.3491 0 25.5217V51.0495C0 53.2221 1.08616 55.3946 3.25849 56.7525L25.2533 69.5164C27.154 70.6027 29.5979 70.6027 31.7702 69.5164L46.705 60.8261L57.0235 54.8515L71.9582 46.1612C73.859 45.0749 76.3029 45.0749 78.4752 46.1612L90.1514 52.9505C92.0522 54.0368 93.4099 56.2094 93.4099 58.6535V72.2322C93.4099 74.4047 92.3238 76.5773 90.1514 77.9352L78.7467 84.7245C76.846 85.8108 74.4021 85.8108 72.2298 84.7245L60.5535 77.9352C58.6527 76.8489 57.295 74.6763 57.295 72.2322V63.5418L46.9765 69.5164V78.4783C46.9765 80.6509 48.0627 82.8235 50.235 84.1814L72.2298 96.9453C74.1306 98.0316 76.5744 98.0316 78.7467 96.9453L100.742 84.1814C102.642 83.0951 104 80.9225 104 78.4783V52.6789C104 50.5063 102.914 48.3338 100.742 46.9759L78.7467 34.212Z" fill="#8247E5"/>
</g>
<defs>
<clipPath id="clip0_11460_2701">
<rect width="104" height="104" fill="white"/>
</clipPath>
</defs>
</svg>
