<svg width="104" height="104" viewBox="0 0 104 104" fill="none" xmlns="http://www.w3.org/2000/svg">
<path d="M30.6 31.4166C20.9055 31.4166 12.9218 23.9772 11.9239 14.4741C11.8288 13.3702 12.6842 12.4583 13.7297 12.4583H17.0562C18.1492 12.4583 19.0046 13.2742 19.1947 14.3301C20.0976 19.8976 24.8498 24.1212 30.6 24.1212C36.3501 24.1212 41.1023 19.8976 42.0052 14.3301C42.1953 13.2742 43.0507 12.4583 44.1437 12.4583H47.4702C48.5632 12.4583 49.4186 13.4182 49.2761 14.4741C48.2781 23.9772 40.2944 31.4166 30.6 31.4166Z" fill="#FAFAFA"/>
<path d="M92.429 27.6251H89.1032C88.0105 27.6251 87.1553 26.8092 86.9652 25.7532C86.0625 20.2337 81.3114 15.9621 75.5625 15.9621C69.8136 15.9621 65.0625 20.1857 64.1598 25.7532C63.9697 26.8092 63.1145 27.6251 62.0218 27.6251H58.696C57.6032 27.6251 56.748 26.6652 56.8906 25.6093C57.8883 16.1061 65.8702 8.66675 75.5625 8.66675C85.2548 8.66675 93.2367 16.1061 94.2344 25.6093C94.377 26.7132 93.5218 27.6251 92.429 27.6251Z" fill="#FAFAFA"/>
<path d="M8.25182 46.0417C7.52753 46.0417 6.99639 46.6919 7.04467 47.3921C8.54153 61.5454 16.1707 73.7483 27.0833 81.2501V46.0417H8.25182Z" fill="#EB3650"/>
<path d="M27.0834 46.0417V81.112C33.7857 85.7947 41.7714 88.5843 50.375 88.8334V46.0417H27.0834Z" fill="#FCA016"/>
<path d="M50.4247 88.7837C50.8227 88.7837 51.2704 88.8334 51.6684 88.8334C60.0753 88.8334 67.9847 86.5943 74.75 82.6635V46.0417H50.375V88.7837H50.4247Z" fill="#F0C909"/>
<path d="M96.9479 47.393C97.0432 46.6423 96.4716 46.0417 95.7571 46.0417H74.75V82.8751C86.8493 75.5685 95.376 62.5567 96.9479 47.393Z" fill="#00E08E"/>
<path d="M52.9089 95.3249C23.8234 95.8576 0 71.2064 0 41.7121V40.8404C0 39.8233 0.813247 39 1.81785 39H102.182C103.187 39 104 39.8233 104 40.8404V42.6807C104.048 71.4001 81.1812 94.8405 52.9089 95.3249ZM8.70653 46.3615C7.98896 46.3615 7.46274 46.9911 7.51057 47.6691C9.99815 70.2862 28.9899 87.9634 52 87.9634C75.0101 87.9634 94.0018 70.2862 96.4893 47.6691C96.585 46.9426 96.011 46.3615 95.2934 46.3615H8.70653Z" fill="#FAFAFA"/>
</svg>
